<mxfile host="app.diagrams.net" modified="2023-07-23T12:36:42.060Z" agent="Mozilla/5.0 (Windows NT 10.0; Win64; x64; rv:109.0) Gecko/20100101 Firefox/115.0" etag="_aWB7bXUl5Pyd3oX-ZPN" version="21.6.5" type="github">
  <diagram name="第 1 页" id="6rvnrQ96XpLBewhn9DFk">
    <mxGraphModel dx="2074" dy="1114" grid="0" gridSize="10" guides="1" tooltips="1" connect="1" arrows="1" fold="1" page="1" pageScale="1" pageWidth="1169" pageHeight="827" background="#000000" math="0" shadow="0">
      <root>
        <mxCell id="0" />
        <mxCell id="1" parent="0" />
        <mxCell id="5rce6ta4U5DSZvvVQ0RW-2" value="" style="rounded=0;whiteSpace=wrap;html=1;fillColor=none;dashed=1;strokeWidth=1;strokeColor=#FFFFFF;" vertex="1" parent="1">
          <mxGeometry x="37" y="373" width="176" height="410" as="geometry" />
        </mxCell>
        <mxCell id="5rce6ta4U5DSZvvVQ0RW-3" value="" style="sketch=0;aspect=fixed;pointerEvents=1;shadow=0;dashed=0;html=1;strokeColor=none;labelPosition=center;verticalLabelPosition=bottom;verticalAlign=top;align=center;fillColor=#00188D;shape=mxgraph.azure.cloud" vertex="1" parent="1">
          <mxGeometry x="67" y="421" width="109.38" height="70" as="geometry" />
        </mxCell>
        <mxCell id="5rce6ta4U5DSZvvVQ0RW-22" style="edgeStyle=orthogonalEdgeStyle;rounded=0;orthogonalLoop=1;jettySize=auto;html=1;entryX=1;entryY=0.5;entryDx=0;entryDy=0;entryPerimeter=0;exitX=-0.016;exitY=0.819;exitDx=0;exitDy=0;exitPerimeter=0;fillColor=#e1d5e7;strokeColor=#9673a6;" edge="1" parent="1" source="5rce6ta4U5DSZvvVQ0RW-4" target="5rce6ta4U5DSZvvVQ0RW-20">
          <mxGeometry relative="1" as="geometry" />
        </mxCell>
        <mxCell id="5rce6ta4U5DSZvvVQ0RW-4" value="" style="rounded=0;whiteSpace=wrap;html=1;fillColor=none;dashed=1;strokeWidth=1;strokeColor=#FFFFFF;" vertex="1" parent="1">
          <mxGeometry x="750" y="110" width="320" height="436" as="geometry" />
        </mxCell>
        <mxCell id="5rce6ta4U5DSZvvVQ0RW-13" style="edgeStyle=orthogonalEdgeStyle;rounded=0;orthogonalLoop=1;jettySize=auto;html=1;entryX=-0.012;entryY=0.202;entryDx=0;entryDy=0;entryPerimeter=0;strokeColor=#d79b00;fillColor=#ffe6cc;" edge="1" parent="1" source="5rce6ta4U5DSZvvVQ0RW-5" target="5rce6ta4U5DSZvvVQ0RW-4">
          <mxGeometry relative="1" as="geometry" />
        </mxCell>
        <mxCell id="5rce6ta4U5DSZvvVQ0RW-5" value="" style="shape=mxgraph.cisco.routers.gigabit_switch_atm_tag_router;sketch=0;html=1;pointerEvents=1;dashed=0;fillColor=#036897;strokeColor=#ffffff;strokeWidth=2;verticalLabelPosition=bottom;verticalAlign=top;align=center;outlineConnect=0;" vertex="1" parent="1">
          <mxGeometry x="445" y="159.5" width="78" height="78" as="geometry" />
        </mxCell>
        <mxCell id="5rce6ta4U5DSZvvVQ0RW-6" value="" style="shape=mxgraph.cisco.hubs_and_gateways.mas_gateway;sketch=0;html=1;pointerEvents=1;dashed=0;fillColor=#036897;strokeColor=#ffffff;strokeWidth=2;verticalLabelPosition=bottom;verticalAlign=top;align=center;outlineConnect=0;" vertex="1" parent="1">
          <mxGeometry x="881" y="163" width="58" height="59" as="geometry" />
        </mxCell>
        <mxCell id="5rce6ta4U5DSZvvVQ0RW-7" value="" style="shape=mxgraph.cisco.storage.tape_array;sketch=0;html=1;pointerEvents=1;dashed=0;fillColor=#036897;strokeColor=#ffffff;strokeWidth=2;verticalLabelPosition=bottom;verticalAlign=top;align=center;outlineConnect=0;" vertex="1" parent="1">
          <mxGeometry x="889" y="266" width="43" height="62" as="geometry" />
        </mxCell>
        <mxCell id="5rce6ta4U5DSZvvVQ0RW-19" style="edgeStyle=orthogonalEdgeStyle;rounded=0;orthogonalLoop=1;jettySize=auto;html=1;strokeColor=#82b366;fillColor=#d5e8d4;" edge="1" parent="1" source="5rce6ta4U5DSZvvVQ0RW-8" target="5rce6ta4U5DSZvvVQ0RW-5">
          <mxGeometry relative="1" as="geometry" />
        </mxCell>
        <mxCell id="5rce6ta4U5DSZvvVQ0RW-8" value="" style="rounded=0;whiteSpace=wrap;html=1;fillColor=none;dashed=1;strokeWidth=1;strokeColor=#FFFFFF;" vertex="1" parent="1">
          <mxGeometry x="39" y="56" width="174" height="284" as="geometry" />
        </mxCell>
        <mxCell id="5rce6ta4U5DSZvvVQ0RW-9" value="" style="shape=mxgraph.cisco.wireless.wireless_transport;sketch=0;html=1;pointerEvents=1;dashed=0;fillColor=#036897;strokeColor=#ffffff;strokeWidth=2;verticalLabelPosition=bottom;verticalAlign=top;align=center;outlineConnect=0;" vertex="1" parent="1">
          <mxGeometry x="871.5" y="371" width="77" height="54" as="geometry" />
        </mxCell>
        <mxCell id="5rce6ta4U5DSZvvVQ0RW-10" value="" style="shape=mxgraph.cisco.storage.relational_database;sketch=0;html=1;pointerEvents=1;dashed=0;fillColor=#036897;strokeColor=#ffffff;strokeWidth=2;verticalLabelPosition=bottom;verticalAlign=top;align=center;outlineConnect=0;" vertex="1" parent="1">
          <mxGeometry x="877" y="467" width="66" height="53" as="geometry" />
        </mxCell>
        <mxCell id="5rce6ta4U5DSZvvVQ0RW-14" value="" style="image;sketch=0;aspect=fixed;html=1;points=[];align=center;fontSize=12;image=img/lib/mscae/VM_Images.svg;" vertex="1" parent="1">
          <mxGeometry x="95.57" y="104" width="60.87" height="56" as="geometry" />
        </mxCell>
        <mxCell id="5rce6ta4U5DSZvvVQ0RW-16" value="" style="shape=mxgraph.cisco.wireless.wireless;sketch=0;html=1;pointerEvents=1;dashed=0;fillColor=#036897;strokeColor=#ffffff;strokeWidth=2;verticalLabelPosition=bottom;verticalAlign=top;align=center;outlineConnect=0;" vertex="1" parent="1">
          <mxGeometry x="107.50999999999999" y="213" width="37" height="67" as="geometry" />
        </mxCell>
        <mxCell id="5rce6ta4U5DSZvvVQ0RW-17" value="" style="image;sketch=0;aspect=fixed;html=1;points=[];align=center;fontSize=12;image=img/lib/mscae/Cloud_Services_Classic.svg;" vertex="1" parent="1">
          <mxGeometry x="101" y="552" width="50" height="42" as="geometry" />
        </mxCell>
        <mxCell id="5rce6ta4U5DSZvvVQ0RW-18" value="" style="shape=mxgraph.cisco.buildings.government_building;sketch=0;html=1;pointerEvents=1;dashed=0;fillColor=#036897;strokeColor=#ffffff;strokeWidth=2;verticalLabelPosition=bottom;verticalAlign=top;align=center;outlineConnect=0;" vertex="1" parent="1">
          <mxGeometry x="71.5" y="645" width="107" height="78" as="geometry" />
        </mxCell>
        <mxCell id="5rce6ta4U5DSZvvVQ0RW-21" style="edgeStyle=orthogonalEdgeStyle;rounded=0;orthogonalLoop=1;jettySize=auto;html=1;entryX=1.023;entryY=0.232;entryDx=0;entryDy=0;entryPerimeter=0;fillColor=#f8cecc;strokeColor=#b85450;" edge="1" parent="1" source="5rce6ta4U5DSZvvVQ0RW-20" target="5rce6ta4U5DSZvvVQ0RW-2">
          <mxGeometry relative="1" as="geometry" />
        </mxCell>
        <mxCell id="5rce6ta4U5DSZvvVQ0RW-20" value="" style="shape=mxgraph.cisco.routers.gigabit_switch_atm_tag_router;sketch=0;html=1;pointerEvents=1;dashed=0;fillColor=#036897;strokeColor=#ffffff;strokeWidth=2;verticalLabelPosition=bottom;verticalAlign=top;align=center;outlineConnect=0;" vertex="1" parent="1">
          <mxGeometry x="445" y="429" width="78" height="78" as="geometry" />
        </mxCell>
      </root>
    </mxGraphModel>
  </diagram>
</mxfile>
